<?xml version="1.0" encoding="utf-8"?>
<!-- Generator: Adobe Illustrator 28.3.0, SVG Export Plug-In . SVG Version: 6.00 Build 0)  -->
<svg version="1.1" id="Layer_1" xmlns="http://www.w3.org/2000/svg" xmlns:xlink="http://www.w3.org/1999/xlink" x="0px" y="0px"
	 viewBox="0 0 1000 500" style="enable-background:new 0 0 1000 500;" xml:space="preserve">
<style type="text/css">
	.st0{fill:#23B61E;}
	.st1{fill:none;}
	.st2{fill:#FFFFFF;}
</style>
<circle class="st0" cx="112.6" cy="228" r="102.4"/>
<path class="st1" d="M92.2,298.6c-1.8-0.8-3.7-1.6-5.5-2.4c7.9-13.4,11-27.1,9.7-42.2c2.1,0.8,4.1,1.6,6.1,2.4
	C103.4,272.3,99.4,286.2,92.2,298.6z"/>
<path class="st1" d="M109.5,228.2c-1.7,0.4-3.4,0.7-5.1,1.1c-0.4-1.3-0.7-2.7-1.1-4c-0.5-1.9-1.1-3.9-1.5-5.8
	c1.7-0.4,3.4-0.9,5.1-1.3C107.6,221.5,108.6,224.8,109.5,228.2z"/>
<g>
	<path d="M98.8,233l-3.7,0.4c-10.2,1.1-21.8,3.3-30.9,10.9c-1.1,0.9-2.1,1.9-3.1,2.9c-5.4,5.7-9.2,13.8-11.5,24l-5.4,24.6l-1.5-25.1
		c-0.5-7.9,0.8-15.8,3.8-22.7c6.5-14.8,19.7-24.2,39.3-28c2.2-0.4,4.5-0.8,6.7-1.1l3.1-0.4l0.7,3.1c0.3,1.5,0.7,3,1,4.5
		c0.3,1.1,0.5,2.3,0.8,3.4L98.8,233z"/>
</g>
<g>
	<g>
		<path d="M165.6,220L165.6,220c-11.6,7-25.9,8.6-38.3,9.5l-2.9,0.2l-0.7-2.9c-0.6-2.5-1.3-4.9-2-7.1l-1.2-4.2l4.4-0.3
			c6.6-0.5,13.7-1.1,20.4-2.4l0.4-0.1c0.3-0.1,0.6-0.1,0.8-0.2c0.3-0.1,0.6-0.1,0.9-0.2c10.3-2.3,17.1-7,20.9-14.4
			c0.5-1,0.9-1.9,1.2-2.8l0.1-0.2c2-5.4,2.7-12.1,2.3-21.2l-1-23.6l7.8,22.3C185.5,192.9,180.7,210.5,165.6,220z"/>
	</g>
</g>
<g>
	<path d="M112.7,193.8c0,0.1,0,0.3,0,0.4l0,0.4c-0.1,0.4-0.1,0.9-0.1,1.5v1.4c0,0.4,0,0.8,0.1,1.1c0,0.5,0,1,0,1.5
		c0,0.1,0,0.2,0,0.3c0,0.3,0.1,0.6,0.1,0.9c0,0.1,0,0.2,0.1,0.5l0.1,0.5v0.3c0,0,0,0.1,0.1,0.4l0.1,0.4c0.1,0.9,0.3,1.7,0.5,2.7
		c0.1,0.5,0.2,1.1,0.3,1.7c0,0.1,0.1,0.3,0.1,0.5c0,0.2,0.1,0.5,0.1,0.7c0.1,0.6,0.3,1.1,0.4,1.8c0.2,0.6,0.3,1.3,0.5,1.9
		c0.3,1,0.6,2.1,0.8,3.1c0.3,1.1,0.6,2.2,0.9,3.3c0.9,3.1,1.5,5.6,2.1,7.9c1.2,5.1,2.6,11.2,3,17.5c0,0.4,0.7,11.3-2.8,22
		c-7.9,24.4-39.9,34.5-41.2,34.9l-19.7,6.1L75.2,296c5-3.3,8.7-6.1,10.2-7.4c1.1-0.9,2.7-2.3,3.6-3.2l0.8-0.7
		c0.2-0.2,0.3-0.3,0.5-0.5c0.4-0.4,0.8-0.8,1.3-1.2l1.4-1.4c0.4-0.8,0.9-1.4,1.5-1.8c0.2-0.2,0.4-0.5,0.7-0.9
		c0.2-0.2,0.4-0.5,0.6-0.8l0.7-0.8c0.1-0.1,0.1-0.2,0.2-0.3c0,0,0.1-0.1,0.1-0.2l0.1-0.2c5.9-7.7,8.8-16.1,8.9-25.5V248
		c0-0.1,0-0.2,0-0.3c0-0.3-0.1-0.6-0.1-0.9v-0.7c0-0.1,0-0.4-0.1-0.7l-0.1-0.5c-0.5-5.4-1.7-10.8-2.9-16l-1.9-7.8
		c-1.7-7.3-3.2-15.2-3.1-23.1c0.3-12.9,7.1-24,18.6-30.4c5.2-2.9,11.2-5,17.4-5.9l21.2-3.3l-19.5,9c-7.6,3.5-12.8,7.1-16.4,11.3
		c-2.7,3-4.5,6.1-5.6,9.6l-0.3,1.2c0,0,0,0,0,0.1v0.5l-0.2,0.4c0,0.1-0.1,0.2-0.1,0.3c0,0.2,0,0.3-0.1,0.5c0,0.3-0.1,0.5-0.1,0.8
		c-0.1,0.3-0.1,0.6-0.1,0.9v0.4L112.7,193.8z"/>
</g>
<g>
	<path d="M171.8,193.5c-14.3-5.4-28.6-10.8-42.8-16.2"/>
	<polygon points="170,198.1 128.9,177.4 173.5,188.9 	"/>
</g>
<g>
	<path d="M108.9,183.9c11.3,4.1,22.6,8.4,33.9,12.5"/>
	<polygon points="110.6,179.3 142.8,196.4 107.2,188.5 	"/>
</g>
<g>
	<path d="M151.4,214.4c-8.5-3.6-17-7.2-25.6-10.7"/>
	<polygon points="149.2,218.9 125.9,203.6 153.7,209.9 	"/>
</g>
<g>
	<path d="M111.3,250.2c-9.3-3-18.6-6.1-27.9-9.2"/>
	<polygon points="109.2,255.2 83.4,241 113.4,245.1 	"/>
</g>
<g>
	<path d="M62,243.5c11.3,6.5,22.5,13,33.8,19.5"/>
	<polygon points="64.3,237.9 95.7,263 59.5,249 	"/>
</g>
<g>
	<path d="M100.3,284.2c-13.9-7.1-27.9-14.1-41.8-21.2"/>
	<polygon points="97.9,289.7 58.5,263 102.7,278.6 	"/>
</g>
<g>
	<g>
		<path class="st2" d="M284.2,303c-8.5,0-16.7-1.2-24.7-3.6c-7.9-2.4-14.2-5.5-19-9.5l8.4-19.7c4.4,3.5,9.9,6.3,16.1,8.5
			c6.3,2.2,12.6,3.4,19.1,3.4c4.9,0,8.8-0.5,11.8-1.6c3-1.1,5.2-2.5,6.6-4.3s2.2-3.8,2.2-6.3c0-3-1.1-5.4-3.4-7.2s-5.2-3.2-8.9-4.3
			c-3.7-1.1-7.7-2.2-12.1-3.2c-4.3-1.1-8.8-2.3-13.2-3.7c-4.4-1.4-8.5-3.4-12.1-5.8c-3.7-2.4-6.6-5.7-8.9-9.5
			c-2.2-4-3.2-8.9-3.2-14.8c0-6.5,1.7-12.4,4.9-17.7c3.2-5.3,8.2-9.6,14.9-12.7c6.6-3.1,15-4.8,25.1-4.8c6.7,0,13.3,0.8,19.8,2.6
			c6.6,1.7,12.3,4.2,17.2,7.5l-7.8,19.7c-4.8-2.9-9.7-5.1-14.8-6.6c-5.1-1.4-10-2.2-14.7-2.2c-4.9,0-8.8,0.6-11.8,1.7
			s-5.1,2.6-6.5,4.6c-1.3,1.9-2,4.1-2,6.5c0,3,1.1,5.4,3.4,7.3c2.3,1.8,5.2,3.2,8.9,4.3c3.6,1.1,7.7,2,12.1,3.1
			c4.4,1.1,8.9,2.3,13.2,3.8c4.3,1.6,8.4,3.5,12,5.8c3.6,2.3,6.6,5.4,8.9,9.4c2.3,4,3.5,8.8,3.5,14.7c0,6.4-1.7,12.1-4.9,17.4
			s-8.3,9.5-15,12.7C302.7,301.4,294.3,303,284.2,303z"/>
		<path class="st2" d="M327.6,235.3v-19.5h56.9v19.5H327.6z M371,302.4c-9.6,0-17.2-2.6-22.6-7.8c-5.4-5.3-8.1-13-8.1-23.5v-76.5
			h23.9v76c0,3.7,0.8,6.5,2.6,8.5c1.8,2,4.2,3.1,7.2,3.1c3.8,0,7.1-1.1,9.7-3.2l6.3,17.8c-2.3,1.8-5.2,3.2-8.7,4.1
			C378.1,301.9,374.6,302.4,371,302.4z"/>
		<path class="st2" d="M421.9,302.4c-6.3,0-11.8-1.2-16.4-3.5c-4.6-2.3-8.1-5.5-10.6-9.5c-2.5-4-3.7-8.4-3.7-13.5s1.2-9.6,3.6-13.5
			c2.4-4,6.1-7,11.3-9.1c5.2-2.2,12-3.2,20.4-3.2h21.6v14.6H429c-5.5,0-9.4,1-11.5,2.9c-2,1.9-3.1,4.3-3.1,7.3
			c0,3.2,1.2,5.8,3.6,7.7c2.4,1.9,5.7,2.9,9.7,2.9s7.7-1,10.9-2.9s5.4-4.9,6.7-8.9l3.6,11.8c-1.7,5.4-4.9,9.6-9.5,12.5
			C435,300.8,429.1,302.4,421.9,302.4z M446.9,301.1v-17l-1.6-3.7V250c0-5.4-1.6-9.6-4.7-12.6c-3.1-3-7.8-4.6-14.3-4.6
			c-4.3,0-8.7,0.7-12.9,2.2c-4.2,1.4-7.8,3.5-10.9,5.9l-8.4-17.7c4.4-3.5,9.9-6.1,16.1-7.8c6.3-1.8,12.7-2.6,19.2-2.6
			c12.5,0,22.2,3.1,29.1,9.4c6.9,6.3,10.3,16,10.3,29.3v49.7H446.9z"/>
		<path class="st2" d="M483.5,301.1v-87.2h22.7v24.8l-3.2-7.3c2.4-6.1,6.4-10.8,11.8-14.1c5.4-3.1,11.9-4.8,19.7-4.8v23.5
			c-1-0.2-1.8-0.4-2.6-0.5c-0.8-0.1-1.7-0.1-2.5-0.1c-6.7,0-12,2-16,6c-4,4-5.9,10.1-5.9,18.5V301h-23.9V301.1z"/>
		<path class="st2" d="M542,301.1V180.9h23.8v120.1H542z M561.8,283.3l0.6-30.9l38.2-38.4H629l-36.8,39.7l-12.4,10.8L561.8,283.3z
			 M603.2,301.1l-27.8-36.6l14.9-19.6l41.6,56.2H603.2z"/>
		<path class="st2" d="M688.8,303c-8.4,0-16.2-1.4-23.3-4.3c-7.1-2.9-13.2-7-18.4-12.3c-5.2-5.3-9.3-11.5-12.1-18.6
			c-2.9-7.1-4.3-14.9-4.3-23.5s1.4-16.4,4.3-23.5s7-13.3,12.3-18.6c5.3-5.3,11.5-9.4,18.6-12.3c7.1-2.9,14.9-4.3,23.5-4.3
			c9.5,0,17.9,1.7,25.5,5.1s14,8.2,19.1,14.6l-15.8,15.5c-4-4.4-8.2-7.7-12.9-9.7c-4.6-2.2-9.6-3.1-15.2-3.1
			c-5.1,0-9.7,0.8-14.1,2.6s-7.9,4.3-11.1,7.6c-3.1,3.2-5.5,7.1-7.2,11.5c-1.7,4.4-2.5,9.4-2.5,14.8c0,5.2,0.8,10,2.5,14.6
			c1.7,4.4,4.1,8.3,7.2,11.5s6.7,5.8,10.9,7.6c4.2,1.8,8.9,2.8,14,2.8c4.9,0,9.6-0.8,14.3-2.6c4.6-1.7,9.1-4.6,13.5-8.5l14.1,19
			c-5.9,4.8-12.6,8.3-20.3,10.8C704,301.8,696.4,303,688.8,303z M709.3,285.2v-42.6h22.6v45.9L709.3,285.2z"/>
		<path class="st2" d="M786.6,302.4c-9.4,0-17.6-1.9-24.5-5.8c-7-3.8-12.5-9.3-16.4-16c-3.8-6.7-5.8-14.4-5.8-23.1
			s1.8-16.4,5.5-23.2c3.7-6.9,8.9-12.1,15.5-16c6.6-3.8,14.2-5.8,22.5-5.8c8.1,0,15.3,1.8,21.8,5.5c6.5,3.7,11.5,8.9,15.3,15.5
			c3.7,6.7,5.7,14.8,5.7,24.2c0,1,0,2-0.1,3.4c-0.1,1.2-0.2,2.4-0.4,3.5h-66.5v-14.8h54.1l-9.3,4.3c0.1-4.6-0.7-8.4-2.4-11.8
			c-1.7-3.4-4.1-6-7.2-7.8c-3-1.9-6.6-2.9-10.7-2.9s-7.7,1-10.7,2.9c-3.1,1.9-5.5,4.6-7.2,7.9s-2.6,7.5-2.6,12v3.8c0,4.8,1,9,3,12.6
			s4.8,6.3,8.4,8.2c3.6,1.9,7.8,2.9,12.9,2.9c4.3,0,8.1-0.7,11.3-2.2c3.2-1.4,6.4-3.5,9-6.4l12.6,14.6c-3.7,4.6-8.5,8.1-14.2,10.5
			C800.7,301.2,794.1,302.4,786.6,302.4z"/>
		<path class="st2" d="M884.9,212.7c6.5,0,12.3,1.3,17.4,4.1c5.2,2.8,9.1,7,12.1,12.6c3,5.7,4.4,13,4.4,21.8v49.9h-23.8V255
			c0-7-1.4-12.1-4.3-15.5c-2.9-3.4-7-5.1-12.3-5.1c-3.7,0-7.1,0.8-10.1,2.6c-3,1.7-5.3,4.2-7,7.6c-1.7,3.4-2.5,7.8-2.5,13.2V301H835
			v-87.2h22.7v24.3l-4.3-7.3c3-5.8,7.2-10.3,12.6-13.5C871.7,214.2,877.9,212.7,884.9,212.7z"/>
		<path class="st2" d="M960.8,302.4c-7,0-13.7-0.8-20.1-2.6s-11.5-4-15.4-6.7l7.8-18c3.8,2.4,8.4,4.3,13.5,5.9
			c5.2,1.6,10.2,2.4,15.2,2.4c5.5,0,9.4-0.7,11.7-2.2c2.3-1.4,3.5-3.4,3.5-5.8c0-2-0.8-3.6-2.6-4.6c-1.8-1.1-4.1-1.8-7-2.4
			c-2.9-0.5-6.1-1.1-9.7-1.6c-3.6-0.5-7.1-1.3-10.6-2.3c-3.5-1-6.7-2.4-9.7-4.1c-3-1.8-5.4-4.2-7.2-7.3c-1.8-3.1-2.6-7.2-2.6-12.1
			c0-5.5,1.6-10.3,4.6-14.7c3-4.2,7.3-7.6,13-10c5.5-2.4,12.4-3.6,20.3-3.6c5.7,0,11.4,0.7,17.2,2c5.8,1.3,10.6,3.2,14.6,5.5
			l-8.1,18c-3.8-2.4-7.8-4.1-11.8-5.1s-7.8-1.4-11.5-1.4c-5.5,0-9.5,0.7-11.9,2.3s-3.6,3.5-3.6,5.8c0,2.2,1,3.8,2.8,4.9
			c1.8,1.1,4.2,1.9,7.2,2.5s6.3,1.1,9.7,1.6c3.6,0.6,7.1,1.3,10.6,2.3c3.5,1,6.7,2.4,9.7,4.1c3,1.8,5.4,4.2,7.2,7.3
			c1.8,3.1,2.6,7.2,2.6,12.1c0,5.3-1.6,10-4.6,14.2s-7.5,7.5-13.2,9.7C976.1,301.2,969.1,302.4,960.8,302.4z"/>
	</g>
</g>
</svg>
