<?xml version="1.0" encoding="utf-8"?>
<!-- Generator: Adobe Illustrator 28.3.0, SVG Export Plug-In . SVG Version: 6.00 Build 0)  -->
<svg version="1.1" id="Layer_1" xmlns="http://www.w3.org/2000/svg" xmlns:xlink="http://www.w3.org/1999/xlink" x="0px" y="0px"
	 viewBox="0 0 1000 500" style="enable-background:new 0 0 1000 500;" xml:space="preserve">
<style type="text/css">
	.st0{fill:#F36A3D;}
	.st1{fill:none;}
</style>
<path class="st0" d="M209.8,299.2L255,190.2h23.3l45.7,109.1h-24.8L261.9,203h9.5l-37.4,96.3H209.8z M232.6,275.9l6-19.2h52.7
	l6.1,19.2H232.6z"/>
<path class="st0" d="M327.7,299.2v-83.8h21.7v23.8l-3.1-7c2.3-5.9,6.1-10.4,11.2-13.5c5.1-3.1,11.4-4.6,18.8-4.6v22.6
	c-0.9-0.2-1.7-0.4-2.5-0.5c-0.8-0.1-1.6-0.2-2.4-0.2c-6.4,0-11.5,1.9-15.3,5.8c-3.8,3.8-5.7,9.8-5.7,17.8v39.6H327.7z"/>
<path class="st0" d="M385.1,299.2V183.7h22.7v115.6H385.1z M403.9,282.1l0.6-29.8l36.6-36.9h27.1L433,253.6L421.2,264L403.9,282.1z
	 M443.5,299.2L417,264l14.3-18.9l39.8,54.1H443.5z"/>
<path class="st0" d="M465.9,299.2l43.7-64.7V253l-41.8-62.8h26.7l29,43.6l-11.4,0.3l28.8-43.9h25.5l-41.7,61.7v-18.1l44.1,65.4
	h-27.2l-30-46.3h10.8l-29.6,46.3H465.9z"/>
<path class="st0" d="M574.4,329.5v-114h21.7v17.1l-0.4,24.9l1.5,24.8v47.2H574.4z M620.6,300.5c-6.5,0-12.2-1.6-17.2-4.7
	c-5-3.1-8.8-7.9-11.6-14.3c-2.8-6.4-4.2-14.5-4.2-24.2c0-9.9,1.3-18,3.9-24.3c2.6-6.3,6.4-11.1,11.4-14.2c5-3.1,10.9-4.7,17.6-4.7
	c7.5,0,14.1,1.8,20,5.4c5.9,3.6,10.5,8.6,14,15c3.4,6.4,5.2,14,5.2,22.7c0,8.8-1.7,16.4-5.2,22.8c-3.4,6.4-8.1,11.4-14,15
	C634.8,298.7,628.1,300.5,620.6,300.5z M616.8,280.6c3.8,0,7.2-0.9,10.1-2.8c3-1.9,5.3-4.5,7.1-8c1.8-3.5,2.7-7.6,2.7-12.4
	c0-4.9-0.9-9-2.7-12.5c-1.8-3.4-4.2-6-7.1-7.9c-3-1.8-6.3-2.7-10.1-2.7c-3.8,0-7.2,0.9-10.2,2.7c-3,1.8-5.4,4.4-7.2,7.9
	c-1.8,3.4-2.7,7.6-2.7,12.5c0,4.8,0.9,8.9,2.7,12.4c1.8,3.5,4.2,6.2,7.2,8C609.6,279.6,613,280.6,616.8,280.6z"/>
<path class="st0" d="M708.4,300.5c-8.9,0-16.7-1.9-23.4-5.6c-6.7-3.7-11.9-8.9-15.6-15.3c-3.7-6.5-5.5-13.9-5.5-22.2
	c0-8.3,1.8-15.7,5.3-22.3c3.5-6.5,8.5-11.7,14.9-15.3c6.4-3.7,13.5-5.5,21.5-5.5c7.7,0,14.6,1.8,20.8,5.3c6.2,3.5,11,8.5,14.6,15
	c3.6,6.4,5.4,14.2,5.4,23.2c0,0.9,0,2-0.1,3.2c-0.1,1.2-0.2,2.3-0.3,3.3h-63.6V250h51.7l-8.9,4.2c0.1-4.4-0.7-8.2-2.3-11.4
	c-1.7-3.2-3.9-5.7-6.8-7.6c-2.9-1.8-6.3-2.7-10.2-2.7c-3.9,0-7.3,0.9-10.3,2.7c-3,1.8-5.3,4.4-6.9,7.6c-1.7,3.3-2.5,7.1-2.5,11.6
	v3.7c0,4.7,1,8.7,2.9,12.2c1.9,3.4,4.6,6.1,8,7.9c3.4,1.8,7.5,2.7,12.2,2.7c4.1,0,7.7-0.7,10.9-2c3.2-1.3,6-3.4,8.7-6.1l12.1,14
	c-3.6,4.4-8.1,7.7-13.5,10C721.8,299.3,715.5,300.5,708.4,300.5z"/>
<path class="st0" d="M803.7,214.2c6.2,0,11.8,1.3,16.7,4c4.9,2.6,8.8,6.7,11.6,12.2c2.8,5.5,4.2,12.4,4.2,21v48h-22.7V255
	c0-6.8-1.4-11.7-4.2-15c-2.8-3.2-6.7-4.8-11.7-4.8c-3.6,0-6.8,0.8-9.7,2.5c-2.9,1.7-5.1,4.1-6.7,7.3c-1.6,3.2-2.4,7.5-2.4,12.8v41.4
	h-22.7v-83.8h21.7v23.2l-4.1-7c2.8-5.6,6.8-9.9,12.1-12.9C791,215.7,797,214.2,803.7,214.2z"/>
<path class="st0" d="M877.7,300.5c-6.7,0-13.1-0.9-19.2-2.6c-6.1-1.7-11-3.9-14.7-6.5l7.4-17.3c3.7,2.3,8,4.2,12.9,5.7
	c4.9,1.5,9.7,2.3,14.5,2.3c5.2,0,9-0.7,11.1-2c2.2-1.3,3.3-3.2,3.3-5.6c0-2-0.9-3.5-2.5-4.4c-1.7-1-3.9-1.7-6.7-2.3
	c-2.8-0.5-5.9-1-9.2-1.6c-3.4-0.5-6.8-1.2-10.1-2.2c-3.3-0.9-6.5-2.3-9.3-4c-2.9-1.7-5.1-4.1-6.8-7.1c-1.7-3-2.5-6.9-2.5-11.7
	c0-5.3,1.5-10,4.4-14.1c2.9-4.1,7-7.3,12.4-9.6c5.3-2.3,11.8-3.4,19.4-3.4c5.4,0,10.9,0.7,16.4,1.9c5.5,1.3,10.1,3.1,13.9,5.4
	l-7.7,17.3c-3.7-2.3-7.5-3.9-11.3-4.8c-3.8-0.9-7.5-1.4-11-1.4c-5.2,0-9,0.7-11.4,2.2c-2.3,1.5-3.5,3.3-3.5,5.6
	c0,2.1,0.9,3.7,2.6,4.8c1.7,1.1,4,1.9,6.8,2.4c2.8,0.5,5.9,1,9.3,1.6c3.4,0.5,6.7,1.2,10,2.2c3.3,0.9,6.4,2.3,9.2,4
	c2.9,1.7,5.1,4.1,6.8,7.1c1.7,3,2.5,6.9,2.5,11.7c0,5.1-1.5,9.6-4.4,13.6c-2.9,4-7.1,7.1-12.6,9.4
	C892.2,299.4,885.5,300.5,877.7,300.5z"/>
<path class="st0" d="M962.1,300.5c-8.9,0-16.7-1.9-23.4-5.6s-11.9-8.9-15.6-15.3c-3.7-6.5-5.5-13.9-5.5-22.2
	c0-8.3,1.8-15.7,5.3-22.3c3.5-6.5,8.5-11.7,14.9-15.3c6.4-3.7,13.5-5.5,21.5-5.5c7.7,0,14.6,1.8,20.8,5.3c6.2,3.5,11,8.5,14.6,15
	c3.6,6.4,5.4,14.2,5.4,23.2c0,0.9,0,2-0.1,3.2c-0.1,1.2-0.2,2.3-0.3,3.3h-63.6V250h51.7l-8.9,4.2c0.1-4.4-0.7-8.2-2.3-11.4
	c-1.7-3.2-3.9-5.7-6.8-7.6c-2.9-1.8-6.3-2.7-10.2-2.7c-3.9,0-7.3,0.9-10.3,2.7c-3,1.8-5.3,4.4-6.9,7.6c-1.7,3.3-2.5,7.1-2.5,11.6
	v3.7c0,4.7,1,8.7,2.9,12.2c1.9,3.4,4.6,6.1,8,7.9c3.4,1.8,7.5,2.7,12.2,2.7c4.1,0,7.7-0.7,10.9-2c3.2-1.3,6-3.4,8.7-6.1l12.1,14
	c-3.6,4.4-8.1,7.7-13.5,10C975.5,299.3,969.2,300.5,962.1,300.5z"/>
<line class="st1" x1="5.7" y1="227.1" x2="5.2" y2="226.9"/>
<path class="st0" d="M182.4,220.4c-0.4-3.4-0.9-6.7-1.7-10c-0.2-0.8-0.4-1.7-0.6-2.5c-0.7-2.6-1.5-5.2-2.3-7.7c0-0.1,0-0.1-0.1-0.2
	c-1.2-3.4-2.6-6.6-4.1-9.8c-1.8-3.6-3.8-7.1-6-10.4c-2.3-3.5-4.9-6.9-7.7-10c-3.3-3.7-7-7.2-10.9-10.4c-4.7-3.8-9.7-7.1-15.1-9.9
	c-11.7-6.2-25-9.8-39.1-10.4h0l-6.7,0h0c-14.1,0.5-27.3,4.2-39.1,10.4c-5.4,2.8-10.4,6.1-15.1,9.9c-3.9,3.2-7.5,6.6-10.9,10.4
	c-2.8,3.1-5.4,6.5-7.7,10c-2.2,3.3-4.2,6.8-6,10.4c-1.6,3.2-2.9,6.4-4.1,9.8c0,0,0,0.1,0,0.1C4,203.6,3,207,2.2,210.5
	c-0.7,3.3-1.3,6.6-1.7,10c-0.4,3.3-0.6,6.7-0.6,10.2c0,0.1,0,0.1,0,0.2c0,3.5,0.2,7,0.6,10.4c0.4,3.5,1,7,1.8,10.4
	c0.8,3.4,1.8,6.8,3,10c1.2,3.3,2.6,6.6,4.1,9.7c1.8,3.6,3.8,7.1,6.1,10.4c2.5,3.7,5.2,7.1,8.1,10.4c3.3,3.6,6.8,7,10.6,10
	c5,4,10.4,7.5,16.2,10.4h0c12.3,6.2,26.2,9.7,41,9.7c14.7,0,28.7-3.5,41-9.7h0c5.8-2.9,11.2-6.4,16.2-10.4c3.8-3.1,7.4-6.4,10.6-10
	c2.9-3.3,5.7-6.7,8.1-10.4c2.2-3.3,4.2-6.8,6-10.4c1.6-3.2,3-6.4,4.2-9.8c1.2-3.3,2.2-6.6,3-10c0.8-3.4,1.4-6.8,1.8-10.4
	c0.4-3.4,0.6-6.9,0.6-10.4v-0.1C183,227.2,182.8,223.8,182.4,220.4z M34.3,273.3c-0.8,0.4-1.9-0.9-1.5-1.7l3.5-6.5l5.5-10l5.7-10.4
	l5.7-10.4l3.3-6.1l2.3-4.3l5.5-10l5.7-10.4l5.3-9.8l5.7-10.4l3.5-6.4l0,0l3.3-6l2.2-3.9c0.9-1.8,3.4-1.8,4.3-0.1l3.4,6.3l5.5,10
	l5.7,10.4l5.3,9.8l5.7,10.4l5.5,10l1.2,2.1c0.6,1.2,0.2,2.6-1,3.2l-10.5,5.1l-21.5,10.4l-1.4,0.7l-20,9.7l-20.7,10 M132.7,265.1
	l-20.7-10l-7.7-3.7c-1.4-0.7-1.4-2.7,0-3.4l6.8-3.2h0l18-8.6c1.2-0.6,2.6-0.1,3.2,1l4.1,7.6l5.7,10.4l5.5,10l2.4,4.3
	c0.9,1.7-0.9,3.6-2.6,2.8L132.7,265.1z"/>
<line class="st1" x1="308.4" y1="178" x2="308.3" y2="178"/>
<line class="st1" x1="117" y1="178.7" x2="116.9" y2="178.6"/>
<path class="st1" d="M258.1,215.7l4.1,7.5l6.2,11.4l6,11"/>
<line class="st1" x1="311.2" y1="186.4" x2="310.9" y2="186.6"/>
</svg>
